<svg width="179" height="26" viewBox="0 0 179 26" fill="none" xmlns="http://www.w3.org/2000/svg">
<path d="M72.8 6.152C74.576 6.152 76.128 6.504 77.456 7.208C78.784 7.912 79.808 8.904 80.528 10.184C81.264 11.448 81.632 12.912 81.632 14.576C81.632 16.224 81.264 17.688 80.528 18.968C79.808 20.248 78.776 21.24 77.432 21.944C76.104 22.648 74.56 23 72.8 23H66.488V6.152H72.8ZM72.536 19.448C74.088 19.448 75.296 19.024 76.16 18.176C77.024 17.328 77.456 16.128 77.456 14.576C77.456 13.024 77.024 11.816 76.16 10.952C75.296 10.088 74.088 9.656 72.536 9.656H70.592V19.448H72.536ZM86.7095 16.28C86.7095 14.904 86.9655 13.696 87.4775 12.656C88.0055 11.616 88.7175 10.816 89.6135 10.256C90.5095 9.696 91.5095 9.416 92.6135 9.416C93.5575 9.416 94.3815 9.608 95.0855 9.992C95.8055 10.376 96.3575 10.88 96.7415 11.504V9.608H100.846V23H96.7415V21.104C96.3415 21.728 95.7815 22.232 95.0615 22.616C94.3575 23 93.5335 23.192 92.5895 23.192C91.5015 23.192 90.5095 22.912 89.6135 22.352C88.7175 21.776 88.0055 20.968 87.4775 19.928C86.9655 18.872 86.7095 17.656 86.7095 16.28ZM96.7415 16.304C96.7415 15.28 96.4535 14.472 95.8775 13.88C95.3175 13.288 94.6295 12.992 93.8135 12.992C92.9975 12.992 92.3015 13.288 91.7255 13.88C91.1655 14.456 90.8855 15.256 90.8855 16.28C90.8855 17.304 91.1655 18.12 91.7255 18.728C92.3015 19.32 92.9975 19.616 93.8135 19.616C94.6295 19.616 95.3175 19.32 95.8775 18.728C96.4535 18.136 96.7415 17.328 96.7415 16.304ZM112.863 23.192C111.695 23.192 110.655 22.992 109.743 22.592C108.831 22.192 108.111 21.648 107.583 20.96C107.055 20.256 106.759 19.472 106.695 18.608H110.751C110.799 19.072 111.015 19.448 111.399 19.736C111.783 20.024 112.255 20.168 112.815 20.168C113.327 20.168 113.719 20.072 113.991 19.88C114.279 19.672 114.423 19.408 114.423 19.088C114.423 18.704 114.223 18.424 113.823 18.248C113.423 18.056 112.775 17.848 111.879 17.624C110.919 17.4 110.119 17.168 109.479 16.928C108.839 16.672 108.287 16.28 107.823 15.752C107.359 15.208 107.127 14.48 107.127 13.568C107.127 12.8 107.335 12.104 107.751 11.48C108.183 10.84 108.807 10.336 109.623 9.968C110.455 9.6 111.439 9.416 112.575 9.416C114.255 9.416 115.575 9.832 116.535 10.664C117.511 11.496 118.071 12.6 118.215 13.976H114.423C114.359 13.512 114.151 13.144 113.799 12.872C113.463 12.6 113.015 12.464 112.455 12.464C111.975 12.464 111.607 12.56 111.351 12.752C111.095 12.928 110.967 13.176 110.967 13.496C110.967 13.88 111.167 14.168 111.567 14.36C111.983 14.552 112.623 14.744 113.487 14.936C114.479 15.192 115.287 15.448 115.911 15.704C116.535 15.944 117.079 16.344 117.543 16.904C118.023 17.448 118.271 18.184 118.287 19.112C118.287 19.896 118.063 20.6 117.615 21.224C117.183 21.832 116.551 22.312 115.719 22.664C114.903 23.016 113.951 23.192 112.863 23.192ZM132.629 9.464C134.165 9.464 135.397 9.976 136.325 11C137.253 12.008 137.717 13.4 137.717 15.176V23H133.637V15.728C133.637 14.832 133.405 14.136 132.941 13.64C132.477 13.144 131.853 12.896 131.069 12.896C130.285 12.896 129.661 13.144 129.197 13.64C128.733 14.136 128.501 14.832 128.501 15.728V23H124.397V5.24H128.501V11.408C128.917 10.816 129.485 10.344 130.205 9.992C130.925 9.64 131.733 9.464 132.629 9.464ZM156.793 16.088C156.793 16.472 156.769 16.872 156.721 17.288H147.433C147.497 18.12 147.761 18.76 148.225 19.208C148.705 19.64 149.289 19.856 149.977 19.856C151.001 19.856 151.713 19.424 152.113 18.56H156.481C156.257 19.44 155.849 20.232 155.257 20.936C154.681 21.64 153.953 22.192 153.073 22.592C152.193 22.992 151.209 23.192 150.121 23.192C148.809 23.192 147.641 22.912 146.617 22.352C145.593 21.792 144.793 20.992 144.217 19.952C143.641 18.912 143.353 17.696 143.353 16.304C143.353 14.912 143.633 13.696 144.193 12.656C144.769 11.616 145.569 10.816 146.593 10.256C147.617 9.696 148.793 9.416 150.121 9.416C151.417 9.416 152.569 9.688 153.577 10.232C154.585 10.776 155.369 11.552 155.929 12.56C156.505 13.568 156.793 14.744 156.793 16.088ZM152.593 15.008C152.593 14.304 152.353 13.744 151.873 13.328C151.393 12.912 150.793 12.704 150.073 12.704C149.385 12.704 148.801 12.904 148.321 13.304C147.857 13.704 147.569 14.272 147.457 15.008H152.593ZM166.662 11.84C167.142 11.104 167.742 10.528 168.462 10.112C169.182 9.68 169.982 9.464 170.862 9.464V13.808H169.734C168.71 13.808 167.942 14.032 167.43 14.48C166.918 14.912 166.662 15.68 166.662 16.784V23H162.558V9.608H166.662V11.84Z" fill="black"/>
<circle cx="43.2" cy="14.2" r="11.2" fill="#FE7A36"/>
<path fill-rule="evenodd" clip-rule="evenodd" d="M33.6 5.0075C30.6984 7.03142 28.8 10.394 28.8 14.2C28.8 18.006 30.6984 21.3686 33.6 23.3925C31.7859 24.6579 29.5796 25.4 27.2 25.4C21.0144 25.4 16 20.3856 16 14.2C16 8.01441 21.0144 3 27.2 3C29.5796 3 31.7859 3.7421 33.6 5.0075Z" fill="#211C84"/>
<path fill-rule="evenodd" clip-rule="evenodd" d="M17.6 5.0075C14.6984 7.03142 12.8 10.394 12.8 14.2C12.8 18.006 14.6984 21.3686 17.6 23.3925C15.7859 24.6579 13.5796 25.4 11.2 25.4C5.01441 25.4 0 20.3856 0 14.2C0 8.01441 5.01441 3 11.2 3C13.5796 3 15.7859 3.7421 17.6 5.0075Z" fill="#C7C7C7"/>
</svg>
